<svg width="23" height="17" viewBox="0 0 23 17" fill="none" xmlns="http://www.w3.org/2000/svg">
<path fill-rule="evenodd" clip-rule="evenodd" d="M1.06643 8.5C1.08302 8.53013 1.10133 8.56305 1.12133 8.59862C1.23999 8.80957 1.41836 9.11326 1.65439 9.47874C2.12709 10.2107 2.82783 11.1853 3.73977 12.158C5.57276 14.1132 8.19975 16 11.5 16C14.8002 16 17.4272 14.1132 19.2602 12.158C20.1722 11.1853 20.8729 10.2107 21.3456 9.47874C21.5816 9.11326 21.76 8.80957 21.8787 8.59862C21.8987 8.56305 21.917 8.53012 21.9336 8.5C21.917 8.46987 21.8987 8.43695 21.8787 8.40138C21.76 8.19043 21.5816 7.88674 21.3456 7.52126C20.8729 6.78934 20.1722 5.8147 19.2602 4.84197C17.4272 2.88678 14.8002 1 11.5 1C8.19975 1 5.57276 2.88678 3.73977 4.84197C2.82783 5.8147 2.12709 6.78934 1.65439 7.52126C1.41836 7.88674 1.23999 8.19043 1.12133 8.40138C1.10133 8.43695 1.08302 8.46987 1.06643 8.5ZM22.5 8.5C22.9472 8.27639 22.9471 8.27621 22.947 8.276L22.9459 8.27371L22.943 8.26812L22.933 8.24844C22.9243 8.23159 22.9118 8.20738 22.8953 8.1763C22.8624 8.11413 22.814 8.02443 22.7502 7.91112C22.6228 7.68457 22.434 7.36326 22.1856 6.97874C21.6896 6.21066 20.9528 5.1853 19.9898 4.15803C18.0728 2.11322 15.1998 0 11.5 0C7.80025 0 4.92724 2.11322 3.01023 4.15803C2.04717 5.1853 1.31041 6.21066 0.814355 6.97874C0.566019 7.36326 0.377193 7.68457 0.249759 7.91112C0.186023 8.02443 0.137588 8.11413 0.104692 8.1763C0.0882423 8.20738 0.0756727 8.23159 0.0670131 8.24844L0.0569579 8.26812L0.0541354 8.27371L0.0532766 8.27542C0.0531694 8.27563 0.0527864 8.27639 0.5 8.5L0.0527864 8.27639C-0.0175955 8.41716 -0.0175955 8.58284 0.0527864 8.72361L0.5 8.5C0.0527864 8.72361 0.0526793 8.72339 0.0527864 8.72361L0.0532766 8.72459L0.0541354 8.72629L0.0569579 8.73188L0.0670131 8.75156C0.0756727 8.76841 0.0882423 8.79262 0.104692 8.8237C0.137588 8.88587 0.186023 8.97557 0.249759 9.08888C0.377193 9.31543 0.566019 9.63674 0.814355 10.0213C1.31041 10.7893 2.04717 11.8147 3.01023 12.842C4.92724 14.8868 7.80025 17 11.5 17C15.1998 17 18.0728 14.8868 19.9898 12.842C20.9528 11.8147 21.6896 10.7893 22.1856 10.0213C22.434 9.63674 22.6228 9.31543 22.7502 9.08888C22.814 8.97557 22.8624 8.88587 22.8953 8.8237C22.9118 8.79262 22.9243 8.76841 22.933 8.75156L22.943 8.73188L22.9459 8.72629L22.9467 8.72459C22.9468 8.72437 22.9472 8.72361 22.5 8.5ZM22.5 8.5L22.9472 8.72361C23.0176 8.58284 23.0174 8.41676 22.947 8.276L22.5 8.5ZM11.5 6C10.1193 6 9 7.11929 9 8.5C9 9.88071 10.1193 11 11.5 11C12.8807 11 14 9.88071 14 8.5C14 7.11929 12.8807 6 11.5 6ZM8 8.5C8 6.567 9.567 5 11.5 5C13.433 5 15 6.567 15 8.5C15 10.433 13.433 12 11.5 12C9.567 12 8 10.433 8 8.5Z" fill="#888DA7"/>
</svg>
