<svg width="41" height="41" viewBox="0 0 41 41" fill="none" xmlns="http://www.w3.org/2000/svg">
<circle cx="20.3408" cy="20.5684" r="20" fill="url(#paint0_linear_2652_407)"/>
<path d="M20.3411 8.57993C15.4259 8.57993 10.7585 8.14304 8.97569 12.7148C8.2393 14.6031 8.34624 17.0553 8.34624 20.5667C8.34624 23.6479 8.24742 26.5438 8.97569 28.4172C10.7544 32.9917 15.4598 32.5534 20.3384 32.5534C25.0451 32.5534 29.898 33.0431 31.7025 28.4172C32.4402 26.51 32.3319 24.0943 32.3319 20.5667C32.3319 15.884 32.5905 12.8609 30.3177 10.5912C28.0164 8.29182 24.9043 8.57993 20.3357 8.57993H20.3411ZM19.2663 10.74C29.519 10.7238 30.8239 9.58491 30.1038 25.4063C29.8479 31.002 25.5839 30.3879 20.3425 30.3879C10.7856 30.3879 10.5108 30.1147 10.5108 20.5613C10.5108 10.8969 11.2688 10.7454 19.2663 10.7373V10.74ZM26.744 12.7297C25.9494 12.7297 25.305 13.3735 25.305 14.1675C25.305 14.9615 25.9494 15.6053 26.744 15.6053C27.5386 15.6053 28.1829 14.9615 28.1829 14.1675C28.1829 13.3735 27.5386 12.7297 26.744 12.7297ZM20.3411 14.411C16.9393 14.411 14.1819 17.1676 14.1819 20.5667C14.1819 23.9658 16.9393 26.721 20.3411 26.721C23.7429 26.721 26.499 23.9658 26.499 20.5667C26.499 17.1676 23.7429 14.411 20.3411 14.411ZM20.3411 16.5711C25.6272 16.5711 25.634 24.5623 20.3411 24.5623C15.0564 24.5623 15.0483 16.5711 20.3411 16.5711Z" fill="white"/>
<defs>
<linearGradient id="paint0_linear_2652_407" x1="33.8292" y1="5.21952" x2="9.17803" y2="40.5684" gradientUnits="userSpaceOnUse">
<stop stop-color="#D03B9D"/>
<stop offset="0.479167" stop-color="#FC5345"/>
<stop offset="1" stop-color="#FFC952"/>
</linearGradient>
</defs>
</svg>
