<svg width="18" height="19" viewBox="0 0 18 19" fill="none" xmlns="http://www.w3.org/2000/svg">
<path d="M17.3602 8.5592L9.82493 16.0945C8.9018 17.0176 7.64977 17.5362 6.34427 17.5362C5.03877 17.5362 3.78674 17.0176 2.86361 16.0945C1.94048 15.1713 1.42188 13.9193 1.42188 12.6138C1.42188 11.3083 1.94048 10.0563 2.86361 9.13316L10.3989 1.59788C11.0143 0.982457 11.849 0.636719 12.7193 0.636719C13.5897 0.636719 14.4244 0.982457 15.0398 1.59788C15.6552 2.2133 16.0009 3.04798 16.0009 3.91832C16.0009 4.78865 15.6552 5.62334 15.0398 6.23876L7.49629 13.774C7.18858 14.0817 6.77124 14.2546 6.33607 14.2546C5.90091 14.2546 5.48356 14.0817 5.17585 13.774C4.86814 13.4663 4.69527 13.049 4.69527 12.6138C4.69527 12.1786 4.86814 11.7613 5.17585 11.4536L12.1372 4.50048" stroke="#888DA7" stroke-linecap="round" stroke-linejoin="round"/>
</svg>
