<svg width="18" height="22" viewBox="0 0 18 22" fill="none" xmlns="http://www.w3.org/2000/svg">
<path d="M17.4908 9.23855C17.4908 15.6023 9.30886 21.0569 9.30886 21.0569C9.30886 21.0569 1.12695 15.6023 1.12695 9.23855C1.12695 7.06857 1.98897 4.98747 3.52338 3.45307C5.05778 1.91866 7.13888 1.05664 9.30886 1.05664C11.4788 1.05664 13.5599 1.91866 15.0943 3.45307C16.6287 4.98747 17.4908 7.06857 17.4908 9.23855Z" stroke="#888DA7" stroke-linecap="round" stroke-linejoin="round"/>
<path d="M9.30886 11.9658C10.8151 11.9658 12.0362 10.7448 12.0362 9.23855C12.0362 7.7323 10.8151 6.51125 9.30886 6.51125C7.80261 6.51125 6.58156 7.7323 6.58156 9.23855C6.58156 10.7448 7.80261 11.9658 9.30886 11.9658Z" stroke="#888DA7" stroke-linecap="round" stroke-linejoin="round"/>
</svg>
