<svg width="26" height="31" viewBox="0 0 26 31" fill="none" xmlns="http://www.w3.org/2000/svg">
<path d="M24.5917 13.289C24.5917 22.1981 13.1372 29.8345 13.1372 29.8345C13.1372 29.8345 1.68262 22.1981 1.68262 13.289C1.68262 10.2511 2.88943 7.33757 5.03757 5.18943C7.18572 3.04129 10.0992 1.83447 13.1372 1.83447C16.1751 1.83447 19.0886 3.04129 21.2367 5.18943C23.3849 7.33757 24.5917 10.2511 24.5917 13.289Z" stroke="#FF8E25" stroke-width="2" stroke-linecap="round" stroke-linejoin="round"/>
<path d="M13.137 17.1072C15.2457 17.1072 16.9551 15.3977 16.9551 13.289C16.9551 11.1803 15.2457 9.47082 13.137 9.47082C11.0282 9.47082 9.31877 11.1803 9.31877 13.289C9.31877 15.3977 11.0282 17.1072 13.137 17.1072Z" stroke="#FF8E25" stroke-width="2" stroke-linecap="round" stroke-linejoin="round"/>
</svg>
