<svg width="22" height="21" viewBox="0 0 22 21" fill="none" xmlns="http://www.w3.org/2000/svg">
<path d="M19.5784 1.09521L17.5784 3.09521M17.5784 3.09521L20.5784 6.09521L17.0784 9.59521L14.0784 6.59521M17.5784 3.09521L14.0784 6.59521M9.9684 10.7052C10.4847 11.2147 10.8952 11.8213 11.1762 12.49C11.4571 13.1588 11.603 13.8765 11.6054 14.6018C11.6079 15.3272 11.4668 16.0459 11.1903 16.7165C10.9138 17.3871 10.5075 17.9964 9.99454 18.5094C9.48163 19.0223 8.87232 19.4287 8.2017 19.7051C7.53108 19.9816 6.8124 20.1227 6.08703 20.1202C5.36166 20.1178 4.64394 19.9719 3.97519 19.691C3.30644 19.41 2.69987 18.9996 2.1904 18.4832C1.18853 17.4459 0.634161 16.0566 0.646692 14.6145C0.659224 13.1724 1.23765 11.793 2.2574 10.7732C3.27714 9.75347 4.65661 9.17504 6.09869 9.16251C7.54078 9.14998 8.93009 9.70435 9.9674 10.7062L9.9684 10.7052ZM9.9684 10.7052L14.0784 6.59521" stroke="#888DA7" stroke-linecap="round" stroke-linejoin="round"/>
</svg>
