<svg width="25" height="25" viewBox="0 0 25 25" fill="none" xmlns="http://www.w3.org/2000/svg">
<path d="M23.2145 17.543V20.8549C23.2158 21.1623 23.1528 21.4667 23.0296 21.7484C22.9064 22.0301 22.7258 22.283 22.4992 22.4908C22.2727 22.6987 22.0052 22.8569 21.714 22.9554C21.4227 23.0539 21.1141 23.0905 20.8079 23.0628C17.4108 22.6937 14.1477 21.5329 11.2807 19.6737C8.61333 17.9787 6.35187 15.7172 4.65691 13.0499C2.79119 10.1699 1.63012 6.89086 1.26775 3.47852C1.24016 3.17324 1.27644 2.86556 1.37428 2.57507C1.47212 2.28457 1.62938 2.01764 1.83603 1.79125C2.04269 1.56486 2.29422 1.38398 2.57461 1.26013C2.855 1.13628 3.15811 1.07217 3.46464 1.07188H6.77652C7.31228 1.06661 7.83168 1.25633 8.23791 1.60569C8.64413 1.95504 8.90946 2.44019 8.98445 2.9707C9.12423 4.03058 9.38347 5.07124 9.75722 6.07283C9.90575 6.46797 9.9379 6.8974 9.84985 7.31024C9.7618 7.72309 9.55725 8.10204 9.26044 8.4022L7.85841 9.80423C9.42996 12.568 11.7184 14.8564 14.4822 16.428L15.8842 15.026C16.1844 14.7292 16.5633 14.5246 16.9762 14.4366C17.389 14.3485 17.8184 14.3807 18.2136 14.5292C19.2152 14.9029 20.2558 15.1622 21.3157 15.302C21.852 15.3776 22.3417 15.6477 22.6918 16.0609C23.0419 16.4741 23.228 17.0016 23.2145 17.543Z" stroke="#FF8E25" stroke-width="2" stroke-linecap="round" stroke-linejoin="round"/>
</svg>
