<svg width="41" height="41" viewBox="0 0 41 41" fill="none" xmlns="http://www.w3.org/2000/svg">
<circle cx="20.0075" cy="20.5684" r="20" fill="#1E88E5"/>
<path d="M19.7509 27.1789H21.185C21.185 27.1789 21.6185 27.1321 21.839 26.8999C22.0431 26.6866 22.0356 26.2864 22.0356 26.2864C22.0356 26.2864 22.0071 24.4124 22.9011 24.1364C23.7817 23.8647 24.9128 25.9475 26.1114 26.7494C27.0174 27.3556 27.706 27.2227 27.706 27.2227L30.9117 27.1789C30.9117 27.1789 32.5888 27.0781 31.7938 25.7942C31.7293 25.689 31.3302 24.8448 29.4101 23.1096C27.4 21.2926 27.67 21.5876 30.0911 18.4458C31.5658 16.5324 32.1553 15.3639 31.9708 14.8644C31.7953 14.3882 30.7107 14.5138 30.7107 14.5138L27.1044 14.5343C27.1044 14.5343 26.8374 14.4992 26.6379 14.6146C26.4444 14.7285 26.3199 14.9914 26.3199 14.9914C26.3199 14.9914 25.7483 16.4725 24.9863 17.7316C23.3797 20.3884 22.7361 20.5286 22.4736 20.3636C21.863 19.9795 22.0161 18.8183 22.0161 17.9945C22.0161 15.4194 22.4166 14.3458 21.2345 14.0683C20.8415 13.9763 20.5534 13.915 19.5499 13.9047C18.2628 13.8916 17.1722 13.9091 16.5557 14.2027C16.1446 14.3984 15.8281 14.8352 16.0216 14.86C16.2601 14.8907 16.8002 15.0017 17.0867 15.3814C17.4572 15.8707 17.4437 16.972 17.4437 16.972C17.4437 16.972 17.6567 20.0028 16.9472 20.3797C16.4596 20.6382 15.7921 20.1109 14.3595 17.6994C13.6259 16.4652 13.0709 15.0995 13.0709 15.0995C13.0709 15.0995 12.9644 14.8454 12.7739 14.7095C12.5429 14.5445 12.2188 14.4919 12.2188 14.4919L8.78958 14.5124C8.78958 14.5124 8.27504 14.527 8.08603 14.7446C7.91802 14.9389 8.07253 15.3391 8.07253 15.3391C8.07253 15.3391 10.7577 21.4547 13.797 24.5381C16.5857 27.3644 19.7509 27.1789 19.7509 27.1789Z" fill="white"/>
</svg>
