<svg width="65" height="79" viewBox="0 0 65 79" fill="none" xmlns="http://www.w3.org/2000/svg">
<path d="M12.4357 44.0867C12.0597 49.168 12.9567 54.2629 15.0456 58.9102C17.8048 64.3604 21.1175 67.1245 24.9089 67.1245H34.2464C37.4455 67.1245 40.1463 65.193 42.6344 61.1192C44.0068 61.0407 45.3711 60.8556 46.7148 60.5657C48.7027 60.2191 50.5556 59.3281 52.0676 57.9917C53.5796 56.6554 54.6915 54.926 55.2797 52.9957C55.5729 51.9291 55.6176 50.8095 55.4105 49.7228C55.2035 48.6362 54.75 47.6115 54.0851 46.7275C53.5294 45.9925 52.8124 45.3948 51.9893 44.9806C51.1662 44.5664 50.2591 44.3467 49.3377 44.3383C48.3787 44.3338 47.4272 44.5072 46.5314 44.8496C46.5119 44.4178 46.4876 44.137 46.4827 44.0819C46.4552 43.7798 46.3157 43.4989 46.0917 43.2944C45.8676 43.0899 45.5752 42.9765 45.2719 42.9766H22.7259C22.4031 42.9766 22.0935 43.1048 21.8652 43.3331C21.6369 43.5614 21.5086 43.871 21.5086 44.1939C21.5086 44.5167 21.6369 44.8263 21.8652 45.0546C22.0935 45.2829 22.4031 45.4112 22.7259 45.4112H44.113C44.2767 49.6744 43.4507 53.9176 41.6995 57.8081C38.6157 63.9043 36.0983 64.685 34.2464 64.685H24.9089C22.1108 64.685 19.5236 62.3705 17.2189 57.8081C15.4705 53.9162 14.6451 49.673 14.807 45.4095H18.7575C19.0804 45.4095 19.39 45.2813 19.6183 45.053C19.8466 44.8247 19.9748 44.5151 19.9748 44.1922C19.9748 43.8694 19.8466 43.5598 19.6183 43.3315C19.39 43.1032 19.0804 42.9749 18.7575 42.9749H13.6465C13.3422 42.975 13.0489 43.0893 12.8247 43.2952C12.6005 43.501 12.4617 43.7835 12.4357 44.0867ZM46.533 47.5617C47.3688 47.0265 48.3455 46.7535 49.3377 46.7778C49.8889 46.7876 50.4305 46.9236 50.9209 47.1754C51.4114 47.4273 51.8375 47.7882 52.1667 48.2304C52.6068 48.8217 52.9037 49.5071 53.0341 50.2326C53.1645 50.958 53.1248 51.7039 52.9181 52.4114C52.4368 53.8994 51.555 55.226 50.3694 56.2459C49.1838 57.2657 47.7402 57.9393 46.197 58.1928C45.4164 58.3551 44.6795 58.4752 44.0367 58.5531C45.5906 55.0915 46.4392 51.3549 46.533 47.5617Z" fill="#8E4FD5"/>
<path d="M33.4365 24.8567C33.1137 24.8567 32.804 24.9849 32.5758 25.2132C32.3475 25.4415 32.2192 25.7511 32.2192 26.074L32.1592 27.9405H28.8968C28.2245 27.9418 27.5802 28.2095 27.105 28.685C26.6298 29.1606 26.3624 29.8051 26.3616 30.4773L26.321 31.8845H20.6987C19.8732 31.9033 19.0878 32.2443 18.5106 32.8348C17.9334 33.4252 17.6102 34.2181 17.6102 35.0438C17.6102 35.8695 17.9334 36.6625 18.5106 37.2529C19.0878 37.8433 19.8732 38.1844 20.6987 38.2031H25.6345C25.8269 38.2031 26.0114 38.2796 26.1475 38.4156C26.2835 38.5517 26.36 38.7362 26.36 38.9286V39.7613C26.36 40.0841 26.4882 40.3937 26.7165 40.622C26.9448 40.8503 27.2544 40.9786 27.5773 40.9786C27.9001 40.9786 28.2097 40.8503 28.438 40.622C28.6663 40.3937 28.7946 40.0841 28.7946 39.7613V38.9286C28.7933 38.0909 28.4599 37.2879 27.8676 36.6955C27.2752 36.1032 26.4722 35.7698 25.6345 35.7685H20.6987C20.5125 35.7597 20.3367 35.6795 20.208 35.5446C20.0793 35.4096 20.0075 35.2303 20.0075 35.0438C20.0075 34.8574 20.0793 34.678 20.208 34.5431C20.3367 34.4082 20.5125 34.328 20.6987 34.3191H26.3194C26.9754 34.3191 27.6047 34.0589 28.069 33.5954C28.5334 33.132 28.7949 32.5033 28.7962 31.8472L28.8984 30.3751H32.1608C32.8219 30.3738 33.4555 30.1105 33.9228 29.6429C34.3901 29.1753 34.653 28.5415 34.6538 27.8804V26.074C34.6538 25.7511 34.5256 25.4415 34.2973 25.2132C34.069 24.9849 33.7594 24.8567 33.4365 24.8567Z" fill="#8E4FD5"/>
<path d="M30.2082 36.3496V39.758C30.2082 40.0809 30.3365 40.3905 30.5648 40.6188C30.7931 40.8471 31.1027 40.9753 31.4255 40.9753C31.7484 40.9753 32.058 40.8471 32.2863 40.6188C32.5146 40.3905 32.6428 40.0809 32.6428 39.758V36.3496C32.6433 36.3185 32.6559 36.2887 32.6781 36.2669C32.7003 36.245 32.7302 36.2327 32.7613 36.2327H35.1261C35.803 36.2319 36.4519 35.9626 36.9305 35.484C37.4091 35.0054 37.6783 34.3565 37.6792 33.6797V32.464C37.679 32.4244 37.6866 32.3852 37.7016 32.3486C37.7166 32.312 37.7387 32.2787 37.7666 32.2506C37.7945 32.2226 37.8277 32.2003 37.8642 32.1851C37.9007 32.1699 37.9399 32.1621 37.9795 32.1621H43.2739C43.5968 32.1621 43.9064 32.0338 44.1347 31.8056C44.363 31.5773 44.4912 31.2676 44.4912 30.9448C44.4912 30.6219 44.363 30.3123 44.1347 30.084C43.9064 29.8557 43.5968 29.7275 43.2739 29.7275H37.9762C37.2509 29.7284 36.5555 30.017 36.0428 30.53C35.53 31.0431 35.2418 31.7386 35.2414 32.464V33.6797C35.2414 33.7111 35.2289 33.7412 35.2067 33.7634C35.1844 33.7857 35.1543 33.7981 35.1229 33.7981H32.7613C32.0846 33.7986 31.4357 34.0675 30.9571 34.5458C30.4784 35.0242 30.2091 35.6729 30.2082 36.3496Z" fill="#8E4FD5"/>
<path d="M63.4502 0.450684H1.60825C1.28569 0.451114 0.976479 0.579554 0.748543 0.807795C0.520606 1.03604 0.392578 1.34541 0.392578 1.66798V6.78063C0.392578 7.10348 0.520829 7.4131 0.749117 7.64139C0.977404 7.86968 1.28703 7.99793 1.60988 7.99793H13.0687V10.4325C12.0532 10.7055 11.1561 11.3058 10.5164 12.1403C9.8766 12.9748 9.52986 13.997 9.52986 15.0485C9.52986 16.1 9.8766 17.1222 10.5164 17.9567C11.1561 18.7912 12.0532 19.3915 13.0687 19.6645V24.2724C8.67091 27.9143 5.38236 32.7164 3.57644 38.1333C1.77052 43.5502 1.51959 49.365 2.85215 54.9174C4.1847 60.4697 7.04735 65.5372 11.115 69.5445C15.1828 73.5518 20.2925 76.3382 25.8642 77.5875C31.4359 78.8369 37.2463 78.4989 42.6355 76.6121C48.0248 74.7253 52.7771 71.3653 56.3528 66.9135C59.9286 62.4617 62.1845 57.0965 62.8644 51.4271C63.5442 45.7577 62.6209 40.0112 60.1992 34.8401C60.134 34.6915 60.0396 34.5574 59.9218 34.4457C59.8039 34.334 59.6649 34.2471 59.5129 34.1899C59.3609 34.1328 59.1991 34.1067 59.0368 34.113C58.8746 34.1194 58.7153 34.1581 58.5683 34.227C58.4212 34.2958 58.2895 34.3934 58.1807 34.514C58.0719 34.6345 57.9884 34.7756 57.935 34.9289C57.8816 35.0823 57.8594 35.2447 57.8697 35.4067C57.88 35.5688 57.9227 35.7271 57.9951 35.8724C59.7517 39.6057 60.6576 43.6825 60.6472 47.8084C60.6453 54.58 58.199 61.1232 53.7581 66.2352C49.3173 71.3472 43.1803 74.6844 36.4756 75.633C29.7708 76.5817 22.9489 75.0783 17.2641 71.399C11.5793 67.7197 7.41374 62.112 5.53322 55.6068C3.65269 49.1017 4.18363 42.1363 7.02841 35.9913C9.8732 29.8463 14.8406 24.9347 21.0174 22.1596C27.1942 19.3845 34.1651 18.9324 40.6486 20.8863C47.1321 22.8403 52.6924 27.069 56.3071 32.7951C56.4863 33.052 56.7575 33.2299 57.0646 33.292C57.3716 33.354 57.6906 33.2953 57.9555 33.1281C58.2203 32.9608 58.4105 32.698 58.4865 32.3941C58.5625 32.0903 58.5184 31.7688 58.3635 31.4966C56.61 28.7162 54.4219 26.2349 51.8826 24.1474V19.6937C52.9224 19.4378 53.8463 18.8407 54.5068 17.9979C55.1673 17.1551 55.5263 16.1152 55.5263 15.0445C55.5263 13.9737 55.1673 12.9338 54.5068 12.091C53.8463 11.2482 52.9224 10.6511 51.8826 10.3952V7.99955H63.4502C63.773 7.99955 64.0827 7.8713 64.311 7.64301C64.5392 7.41472 64.6675 7.1051 64.6675 6.78225V1.66798C64.6675 1.34513 64.5392 1.03551 64.311 0.807222C64.0827 0.578934 63.773 0.450684 63.4502 0.450684ZM11.965 15.0436C11.9658 14.645 12.0673 14.2531 12.2599 13.9041C12.4526 13.5551 12.7302 13.2604 13.0671 13.0473V13.3833C13.0671 13.7061 13.1953 14.0157 13.4236 14.244C13.6519 14.4723 13.9615 14.6005 14.2844 14.6005C14.6072 14.6005 14.9168 14.4723 15.1451 14.244C15.3734 14.0157 15.5017 13.7061 15.5017 13.3833V12.9888C15.8682 13.1926 16.1736 13.4906 16.3862 13.852C16.5988 14.2134 16.7109 14.6251 16.7109 15.0445C16.7109 15.4638 16.5988 15.8755 16.3862 16.2369C16.1736 16.5983 15.8682 16.8963 15.5017 17.1001V16.5596C15.5017 16.2367 15.3734 15.9271 15.1451 15.6988C14.9168 15.4705 14.6072 15.3423 14.2844 15.3423C13.9615 15.3423 13.6519 15.4705 13.4236 15.6988C13.1953 15.9271 13.0671 16.2367 13.0671 16.5596V17.0465C12.7294 16.8327 12.4512 16.5369 12.2586 16.1868C12.0659 15.8366 11.9649 15.4433 11.965 15.0436ZM53.0934 15.0436C53.092 15.4632 52.9792 15.8748 52.7664 16.2364C52.5537 16.5981 52.2487 16.8967 51.8826 17.1017V16.5596C51.8826 16.2367 51.7544 15.9271 51.5261 15.6988C51.2978 15.4705 50.9882 15.3423 50.6653 15.3423C50.3425 15.3423 50.0329 15.4705 49.8046 15.6988C49.5763 15.9271 49.448 16.2367 49.448 16.5596V17.0465C49.1111 16.8334 48.8336 16.5385 48.6413 16.1893C48.449 15.8401 48.3481 15.448 48.3481 15.0493C48.3481 14.6507 48.449 14.2585 48.6413 13.9093C48.8336 13.5601 49.1111 13.2653 49.448 13.0521V13.3881C49.448 13.711 49.5763 14.0206 49.8046 14.2489C50.0329 14.4772 50.3425 14.6054 50.6653 14.6054C50.9882 14.6054 51.2978 14.4772 51.5261 14.2489C51.7544 14.0206 51.8826 13.711 51.8826 13.3881V12.9888C52.2485 13.1932 52.5535 13.4912 52.7663 13.8523C52.979 14.2134 53.0919 14.6245 53.0934 15.0436ZM62.2313 5.56496H23.4596C23.1367 5.56496 22.8271 5.69321 22.5988 5.92149C22.3705 6.14978 22.2423 6.45941 22.2423 6.78225C22.2423 7.1051 22.3705 7.41472 22.5988 7.64301C22.8271 7.8713 23.1367 7.99955 23.4596 7.99955H49.448V10.4341C48.4333 10.7077 47.5369 11.3081 46.8978 12.1424C46.2586 12.9766 45.9122 13.9983 45.9122 15.0493C45.9122 16.1003 46.2586 17.122 46.8978 17.9563C47.5369 18.7906 48.4333 19.391 49.448 19.6645V22.362C44.4153 19.0173 38.5034 17.2409 32.4606 17.2577C26.4178 17.2744 20.5158 19.0836 15.5017 22.4562V19.697C16.5414 19.441 17.4654 18.844 18.1259 18.0012C18.7864 17.1584 19.1453 16.1185 19.1453 15.0477C19.1453 13.9769 18.7864 12.937 18.1259 12.0942C17.4654 11.2514 16.5414 10.6544 15.5017 10.3984V7.99955H20.0316C20.3545 7.99955 20.6641 7.8713 20.8924 7.64301C21.1207 7.41472 21.2489 7.1051 21.2489 6.78225C21.2489 6.45941 21.1207 6.14978 20.8924 5.92149C20.6641 5.69321 20.3545 5.56496 20.0316 5.56496H2.82717V2.88528H62.2313V5.56496Z" fill="#8E4FD5"/>
</svg>
