<svg width="69" height="69" viewBox="0 0 69 69" fill="none" xmlns="http://www.w3.org/2000/svg">
<path d="M58.1473 48.1729H38.3758L56.8712 29.682C57.7554 28.7951 57.7554 27.36 56.8712 26.4731L44.0095 13.6C43.1154 12.7284 41.6881 12.733 40.7995 13.6103L22.9222 31.4876V19.4588C22.9186 18.7311 22.7426 18.0146 22.4086 17.368L14.5681 2.25528C13.9719 1.14178 12.8102 0.447838 11.5472 0.450692C10.2841 0.453547 9.12558 1.15273 8.53442 2.26892L0.707621 17.3794C0.375638 18.0225 0.200427 18.735 0.196289 19.4588V58.3996C0.203176 64.0447 4.77777 68.6193 10.4229 68.6262H58.1473C63.7953 68.6262 68.3739 64.0476 68.3739 58.3996C68.3739 52.7516 63.7953 48.1729 58.1473 48.1729ZM42.4119 15.2204L55.2645 28.0753L35.1669 48.1729H10.4229C10.0814 48.1732 9.74007 48.1906 9.40027 48.2252L12.6785 44.9481L13.3091 45.5776C13.7534 46.021 14.473 46.0202 14.9164 45.5759C15.3598 45.1316 15.359 44.412 14.9147 43.9686L14.2841 43.3391L15.8908 41.7313L17.4998 43.3403C17.787 43.6273 18.2055 43.7393 18.5977 43.634C18.9898 43.5288 19.2961 43.2223 19.401 42.8301C19.506 42.4379 19.3937 42.0194 19.1065 41.7324L17.4986 40.1246L19.1054 38.5178L22.3199 41.7324C22.7658 42.163 23.4745 42.1569 23.9128 41.7186C24.3511 41.2803 24.3573 40.5715 23.9267 40.1257L20.7121 36.9111L22.3199 35.3044L23.9278 36.9122C24.3747 37.3326 25.0746 37.3222 25.5089 36.8888C25.9431 36.4555 25.955 35.7556 25.5356 35.3078L23.9278 33.6999L25.5356 32.0932L28.7502 35.3078C29.1961 35.7384 29.9048 35.7323 30.3431 35.294C30.7814 34.8557 30.7876 34.1469 30.3569 33.7011L27.1435 30.4865L28.7502 28.8798L30.3581 30.4865C30.6434 30.7819 31.0659 30.9004 31.4631 30.7964C31.8604 30.6924 32.1707 30.3821 32.2747 29.9848C32.3787 29.5876 32.2602 29.1651 31.9648 28.8798L30.3569 27.2731L31.9648 25.6652L35.1782 28.8798C35.4655 29.1668 35.884 29.2788 36.2761 29.1736C36.6683 29.0683 36.9745 28.7619 37.0795 28.3696C37.1845 27.9774 37.0722 27.5589 36.785 27.2719L33.5692 24.0585L35.176 22.4518L36.785 24.0585C37.2308 24.4891 37.9395 24.483 38.3778 24.0447C38.8161 23.6063 38.8223 22.8976 38.3917 22.4518L36.785 20.8451L38.3917 19.2383L41.6051 22.4518C42.051 22.8824 42.7597 22.8762 43.198 22.4379C43.6363 21.9996 43.6425 21.2909 43.2118 20.8451L39.9984 17.6316L42.4119 15.2204ZM6.92997 21.6518L2.77454 18.3236L6.88452 10.3957C9.71487 12.2843 13.4036 12.2843 16.2339 10.3957L20.3439 18.3248L16.1885 21.6518L13.1659 18.6293C12.2785 17.7421 10.84 17.7421 9.95251 18.6293L6.92997 21.6518ZM17.2407 37.1691V23.6642C17.371 23.5971 17.4944 23.5171 17.6089 23.4256L20.6496 20.9905V33.7602L17.2407 37.1691ZM10.5502 3.32567C10.7481 2.95569 11.1325 2.72368 11.5521 2.72107C11.9717 2.71846 12.359 2.94568 12.5614 3.31317L15.1681 8.339C13.0287 9.94042 10.0898 9.94042 7.95036 8.339L10.5502 3.32567ZM2.46888 20.9905L5.5096 23.4256C5.62555 23.505 5.74883 23.5731 5.87776 23.629V36.81C5.87776 37.4375 6.3865 37.9463 7.01405 37.9463C7.64161 37.9463 8.15035 37.4375 8.15035 36.81V23.5653C8.2898 23.4773 8.41933 23.3744 8.53669 23.2585L11.5592 20.236L14.5818 23.2585C14.6989 23.374 14.8285 23.4761 14.9681 23.5631V39.4416L8.15035 46.2594V41.3552C8.15035 40.7276 7.64161 40.2189 7.01405 40.2189C6.3865 40.2189 5.87776 40.7276 5.87776 41.3552V48.532L3.83243 50.5773L3.80289 50.608C3.7973 50.6159 3.79236 50.6243 3.78811 50.633C3.3078 51.0427 2.86619 51.4957 2.46888 51.9863V20.9905ZM58.1473 66.3536H10.4229C6.03003 66.3536 2.46888 62.7925 2.46888 58.3996C2.46888 54.0067 6.03003 50.4455 10.4229 50.4455H58.1473C62.5402 50.4455 66.1013 54.0067 66.1013 58.3996C66.1013 62.7925 62.5402 66.3536 58.1473 66.3536Z" fill="#8E4FD5"/>
<path d="M10.4229 52.7181C7.28515 52.7181 4.74147 55.2618 4.74147 58.3996C4.74147 61.5374 7.28515 64.081 10.4229 64.081C13.5607 64.081 16.1044 61.5374 16.1044 58.3996C16.1007 55.2633 13.5592 52.7219 10.4229 52.7181ZM10.4229 61.8085C8.54026 61.8085 7.01405 60.2822 7.01405 58.3996C7.01405 56.5169 8.54026 54.9907 10.4229 54.9907C12.3056 54.9907 13.8318 56.5169 13.8318 58.3996C13.8318 60.2822 12.3056 61.8085 10.4229 61.8085Z" fill="#8E4FD5"/>
<path d="M58.1473 52.7181C55.0095 52.7181 52.4658 55.2618 52.4658 58.3996C52.4658 61.5374 55.0095 64.081 58.1473 64.081C61.2851 64.081 63.8288 61.5374 63.8288 58.3996C63.825 55.2633 61.2835 52.7219 58.1473 52.7181ZM58.1473 61.8085C56.2646 61.8085 54.7384 60.2822 54.7384 58.3996C54.7384 56.5169 56.2646 54.9907 58.1473 54.9907C60.03 54.9907 61.5562 56.5169 61.5562 58.3996C61.5562 60.2822 60.03 61.8085 58.1473 61.8085Z" fill="#8E4FD5"/>
</svg>
