<svg width="15" height="29" viewBox="0 0 15 29" fill="none" xmlns="http://www.w3.org/2000/svg">
<path d="M4.3638 16.3109C4.25672 16.3109 2.01036 16.3115 0.97431 16.3105C0.44094 16.3102 0.250646 16.1185 0.250646 15.5817C0.249964 14.203 0.249623 12.8242 0.250646 11.4454C0.250987 10.9154 0.452194 10.7132 0.978744 10.7129C2.01479 10.7122 4.24888 10.7125 4.3638 10.7125C4.3638 10.6181 4.36346 8.62747 4.3638 7.71078C4.36448 6.35553 4.60627 5.05825 5.29481 3.87045C5.99972 2.65468 7.02554 1.82188 8.34021 1.34035C9.18221 1.03172 10.0563 0.908607 10.9498 0.907925C12.0677 0.907243 13.1856 0.908266 14.3038 0.910312C14.7843 0.910995 14.9974 1.12346 14.9985 1.60738C15.0005 2.90431 15.0005 4.20125 14.9985 5.49784C14.9978 5.98688 14.7935 6.18331 14.3021 6.18877C13.3857 6.19866 12.4687 6.19252 11.5534 6.22935C10.6289 6.22935 10.1425 6.68087 10.1425 7.6378C10.1204 8.64998 10.1333 9.66318 10.1333 10.7122C10.22 10.7122 12.851 10.7118 14.0808 10.7122C14.6394 10.7122 14.8303 10.9042 14.8303 11.4659C14.8303 12.8371 14.83 14.2088 14.829 15.58C14.8286 16.1335 14.6493 16.3102 14.0872 16.3105C12.8575 16.3112 10.2367 16.3109 10.1221 16.3109V27.4097C10.1221 28.0014 9.93588 28.1899 9.35204 28.1899C7.92858 28.1899 6.50479 28.1903 5.08133 28.1899C4.56535 28.1899 4.36414 27.9894 4.36414 27.4734C4.3638 23.8589 4.3638 16.4377 4.3638 16.3109Z" fill="#3D6AD6"/>
</svg>
