<svg width="24" height="24" viewBox="0 0 24 24" fill="none" xmlns="http://www.w3.org/2000/svg">
<path d="M22.6456 9.97314H13.4107C13.0035 9.97314 12.6738 10.3028 12.6738 10.71V13.6623C12.6738 14.0695 13.0035 14.3991 13.4107 14.3991H18.6123C18.0451 15.8777 16.9786 17.1138 15.6261 17.8992L17.8415 21.7386C21.3949 19.6831 23.4988 16.0716 23.4988 12.0334C23.4988 11.4565 23.4552 11.0445 23.3728 10.584C23.3049 10.2301 22.9995 9.97314 22.6456 9.97314V9.97314Z" fill="#167EE6"/>
<path d="M12.1801 18.8295C9.63501 18.8295 7.41475 17.4382 6.22221 15.3828L2.38281 17.5934C4.33645 20.9819 7.99648 23.2604 12.1801 23.2604C14.2355 23.2604 16.1697 22.7077 17.8422 21.743V21.7382L15.6268 17.8988C14.6088 18.4902 13.4356 18.8295 12.1801 18.8295V18.8295Z" fill="#12B347"/>
<path d="M17.837 21.7432V21.7383L15.6216 17.8989C14.6084 18.4855 13.4352 18.8297 12.1797 18.8297V23.2605C14.2351 23.2605 16.1694 22.7079 17.837 21.7432Z" fill="#0F993E"/>
<path d="M5.29215 11.941C5.29215 10.6855 5.63634 9.51231 6.22291 8.49914L2.38351 6.28857C1.41397 7.95134 0.861328 9.88074 0.861328 11.941C0.861328 14.0013 1.41397 15.9307 2.38351 17.5935L6.22291 15.3829C5.63149 14.3697 5.29215 13.1966 5.29215 11.941V11.941Z" fill="#FFD500"/>
<path d="M12.1801 5.0524C13.838 5.0524 15.365 5.64383 16.5527 6.62307C16.8484 6.86545 17.275 6.84606 17.5417 6.57944L19.631 4.49007C19.9364 4.18466 19.9122 3.68534 19.5874 3.40418C17.595 1.66869 15.0014 0.621582 12.1801 0.621582C7.99648 0.621582 4.33645 2.90001 2.38281 6.28857L6.22221 8.49914C7.41475 6.4437 9.63501 5.0524 12.1801 5.0524Z" fill="#FF4B26"/>
<path d="M16.5523 6.62307C16.848 6.86545 17.2746 6.84606 17.5413 6.57944L19.6306 4.49007C19.936 4.18466 19.9118 3.68534 19.587 3.40418C17.5946 1.66869 15.0011 0.621582 12.1797 0.621582V5.0524C13.8376 5.0524 15.3646 5.63898 16.5523 6.62307Z" fill="#D93F21"/>
</svg>
