<svg width="21" height="30" viewBox="0 0 21 30" fill="none" xmlns="http://www.w3.org/2000/svg">
<path d="M12.4734 0.295166H2.83063C1.50134 0.295166 0.419922 1.37659 0.419922 2.70588V20.0628C0.419922 21.3921 1.50134 22.4736 2.83063 22.4736H11.5091V21.5093H2.83063C2.03318 21.5093 1.38422 20.8603 1.38422 20.0628V2.70588C1.38422 1.90843 2.03318 1.25946 2.83063 1.25946H12.4734C13.2709 1.25946 13.9198 1.90843 13.9198 2.70588V16.6879H14.8841V2.70588C14.8841 1.37659 13.8026 0.295166 12.4734 0.295166Z" fill="white"/>
<path d="M19.5082 13.1374L14.7785 7.22637L14.0249 7.82906L18.7546 13.7396C19.3684 14.5062 19.7059 15.4695 19.7054 16.4516V28.2592H12.6518C10.1611 28.2592 8.13417 26.2327 8.13417 23.7415V21.9914H7.16987V23.7415C7.16987 26.764 9.62929 29.2235 12.6518 29.2235H20.1876C20.4542 29.2235 20.6697 29.008 20.6697 28.7413V16.4521C20.6702 15.2526 20.258 14.0751 19.5082 13.1374Z" fill="white"/>
<path d="M8.61437 11.6655C8.95281 11.6751 9.26768 11.8159 9.49956 12.0617L15.979 18.9467L16.6815 18.2857L10.2011 11.4002C9.79173 10.9668 9.23774 10.7185 8.64183 10.7016C8.03964 10.6814 7.47893 10.9007 7.05077 11.3053C7.04546 11.3106 7.00687 11.3472 7.00207 11.3525C6.17812 12.1789 6.12264 13.4758 6.87432 14.3717L11.027 19.275V20.7667C11.0265 23.431 12.702 25.848 15.197 26.7823L15.5355 25.8793C13.415 25.0852 11.9908 23.0308 11.9912 20.7667V19.0986C11.9912 18.9848 11.9507 18.8738 11.877 18.7866L7.61154 13.7497C7.18485 13.2415 7.2162 12.5034 7.70799 12.0111C7.95382 11.7787 8.27491 11.6635 8.61437 11.6655Z" fill="white"/>
<path d="M11.9912 1.25946H11.0269V13.3129H11.9912V1.25946Z" fill="white"/>
<path d="M9.58058 16.2057H8.61629V21.9914H9.58058V16.2057Z" fill="white"/>
<path d="M9.58058 0.777285H8.61629V11.3843H9.58058V0.777285Z" fill="white"/>
<path d="M3.79493 2.70588H2.83063V8.97365H3.79493V2.70588Z" fill="white"/>
<path d="M6.20558 2.70588H5.24128V6.563H6.20558V2.70588Z" fill="white"/>
<path d="M6.20558 16.2057H3.31275C3.04663 16.2057 2.83063 16.4212 2.83063 16.6878V19.5807C2.83063 19.8473 3.04663 20.0628 3.31275 20.0628H6.20558C6.4717 20.0628 6.6877 19.8473 6.6877 19.5807V16.6878C6.6877 16.4212 6.4717 16.2057 6.20558 16.2057ZM5.72346 19.0986H3.79493V17.17H5.72346V19.0986Z" fill="white"/>
</svg>
