<svg width="247" height="353" viewBox="0 0 247 353" fill="none" xmlns="http://www.w3.org/2000/svg">
<g opacity="0.07">
<path d="M147.157 0.0388184H29.6957C13.5032 0.0388184 0.330078 13.212 0.330078 29.4045V240.836C0.330078 257.027 13.5032 270.201 29.6957 270.201H135.411V258.455H29.6957C19.9818 258.455 12.0765 250.55 12.0765 240.836V29.4045C12.0765 19.6905 19.9818 11.7852 29.6957 11.7852H147.158C156.872 11.7852 164.777 19.6905 164.777 29.4045V199.724H176.523V29.4045C176.523 13.212 163.35 0.0388184 147.157 0.0388184Z" fill="#8E4FD5"/>
<path d="M232.851 156.474L175.236 84.4702L166.056 91.8118L223.671 163.81C231.148 173.148 235.259 184.883 235.253 196.846V340.678H149.331C118.99 340.678 94.2999 315.993 94.2999 285.647V264.328H82.5535V285.647C82.5535 322.465 112.512 352.424 149.331 352.424H241.127C244.375 352.424 247 349.799 247 346.551V196.852C247.006 182.24 241.984 167.897 232.851 156.474Z" fill="#8E4FD5"/>
<path d="M100.149 138.544C104.272 138.662 108.108 140.376 110.932 143.372L189.861 227.239L198.418 219.187L119.478 135.313C114.491 130.033 107.743 127.009 100.484 126.803C93.1485 126.557 86.3183 129.229 81.1027 134.157C81.038 134.221 80.5679 134.667 80.5094 134.732C70.4726 144.798 69.7968 160.597 78.9533 171.509L129.538 231.239V249.41C129.532 281.864 149.942 311.307 180.335 322.688L184.458 311.688C158.627 302.015 141.279 276.99 141.284 249.41V229.089C141.284 227.703 140.791 226.352 139.893 225.289L87.9336 163.933C82.7359 157.743 83.1179 148.751 89.1085 142.755C92.103 139.924 96.0144 138.52 100.149 138.544Z" fill="#8E4FD5"/>
<path d="M141.284 11.7852H129.538V158.612H141.284V11.7852Z" fill="#8E4FD5"/>
<path d="M111.919 193.851H100.173V264.328H111.919V193.851Z" fill="#8E4FD5"/>
<path d="M111.919 5.91168H100.173V135.119H111.919V5.91168Z" fill="#8E4FD5"/>
<path d="M41.4422 29.4045H29.6957V105.754H41.4422V29.4045Z" fill="#8E4FD5"/>
<path d="M70.8071 29.4045H59.0607V76.3894H70.8071V29.4045Z" fill="#8E4FD5"/>
<path d="M70.8071 193.851H35.5686C32.3269 193.851 29.6957 196.476 29.6957 199.724V234.962C29.6957 238.21 32.3269 240.835 35.5686 240.835H70.8071C74.0488 240.835 76.68 238.21 76.68 234.962V199.724C76.68 196.476 74.0488 193.851 70.8071 193.851ZM64.9343 229.089H41.4422V205.597H64.9343V229.089Z" fill="#8E4FD5"/>
</g>
</svg>
