<svg width="28" height="27" viewBox="0 0 28 27" fill="none" xmlns="http://www.w3.org/2000/svg">
<path d="M4.87806 23.9658C4.78118 23.8688 4.64674 23.8131 4.50969 23.8131C4.37264 23.8131 4.2382 23.8688 4.14127 23.9658C4.04435 24.0627 3.98859 24.1971 3.98859 24.3342C3.98859 24.4712 4.0443 24.6057 4.14127 24.7026C4.2382 24.7995 4.37264 24.8553 4.50969 24.8553C4.64674 24.8553 4.78118 24.7995 4.87806 24.7026C4.97498 24.6057 5.03079 24.4712 5.03079 24.3342C5.03079 24.1971 4.97503 24.0627 4.87806 23.9658Z" fill="white"/>
<path d="M24.9119 9.79219C24.815 9.69522 24.681 9.63951 24.5435 9.63951C24.4064 9.63951 24.272 9.69522 24.175 9.79219C24.0782 9.88912 24.0224 10.0236 24.0224 10.1606C24.0224 10.2977 24.0781 10.4321 24.175 10.529C24.272 10.6259 24.4064 10.6817 24.5435 10.6817C24.681 10.6817 24.815 10.626 24.9119 10.529C25.0093 10.4321 25.065 10.2977 25.065 10.1606C25.065 10.0236 25.0093 9.88912 24.9119 9.79219Z" fill="white"/>
<path d="M26.9724 0.411908C26.8746 0.314201 26.742 0.259277 26.6038 0.259277L13.785 0.259955C13.4973 0.259955 13.264 0.493304 13.264 0.781056V2.27125L8.32451 3.59479C8.04651 3.66931 7.88153 3.95503 7.95604 4.23298L10.5161 13.787L8.30143 16.0016C8.01957 15.59 7.5463 15.3194 7.01097 15.3194H2.00856C1.14656 15.3194 0.445312 16.0207 0.445312 16.8826V25.3763C0.445312 26.2383 1.14656 26.9396 2.00856 26.9396H7.01103C7.74333 26.9396 8.35938 26.4333 8.52821 25.7526L9.1478 26.2929C9.62612 26.71 10.2389 26.9397 10.8736 26.9397H26.6039C26.8917 26.9397 27.125 26.7063 27.125 26.4186V0.780378C27.1249 0.642182 27.0701 0.509614 26.9724 0.411908ZM7.53202 25.3764C7.53202 25.6637 7.29826 25.8975 7.01092 25.8975H2.00851C1.72118 25.8975 1.48741 25.6637 1.48741 25.3764V16.8827C1.48741 16.5953 1.72118 16.3616 2.00851 16.3616H3.98864V22.3644C3.98864 22.6521 4.22199 22.8855 4.50974 22.8855C4.79749 22.8855 5.03084 22.6521 5.03084 22.3644V16.3616H7.01097C7.29831 16.3616 7.53208 16.5953 7.53208 16.8827V25.3764H7.53202ZM9.09757 4.46659L13.264 3.35019V5.28113L12.9147 5.37472C12.7812 5.41052 12.6674 5.4978 12.5983 5.6175C12.5292 5.73719 12.5105 5.8794 12.5463 6.01291C12.7465 6.76022 12.3015 7.53108 11.5541 7.73134C11.4205 7.76719 11.3065 7.85464 11.2375 7.97459C11.1684 8.0945 11.1498 8.23697 11.1859 8.37058L13.2171 15.892H12.1713L11.6323 13.7835C11.6152 13.7163 11.5851 13.6545 11.545 13.6007L9.09757 4.46659ZM13.264 7.67084V12.0679L12.3135 8.54869C12.7106 8.34369 13.0355 8.03697 13.264 7.67084ZM20.7503 25.8974H10.8735C10.4907 25.8974 10.1211 25.7589 9.83263 25.5074L8.57423 24.4099V17.2027L10.8492 14.9277L11.2619 16.5421C11.3208 16.7728 11.5286 16.9341 11.7667 16.9341L22.0117 16.9347C22.414 16.9347 22.7413 17.262 22.7413 17.6643C22.7413 18.0665 22.414 18.3938 22.0117 18.3938H16.7622C16.4744 18.3938 16.2411 18.6271 16.2411 18.9149C16.2411 19.2026 16.4744 19.436 16.7622 19.436H23.6428C24.0451 19.436 24.3723 19.7632 24.3723 20.1655C24.3723 20.5678 24.0451 20.8951 23.6428 20.8951H16.7622C16.4744 20.8951 16.2411 21.1284 16.2411 21.4162C16.2411 21.7039 16.4744 21.9373 16.7622 21.9373H22.5278C22.9301 21.9373 23.2573 22.2645 23.2573 22.6668C23.2573 23.0691 22.9301 23.3964 22.5278 23.3964H16.7622C16.4744 23.3964 16.2411 23.6297 16.2411 23.9175C16.2411 24.2052 16.4744 24.4386 16.7622 24.4386H20.7503C21.1526 24.4386 21.4799 24.7658 21.4799 25.1681C21.4798 25.5702 21.1526 25.8974 20.7503 25.8974ZM26.0828 25.8974H22.3642C22.4653 25.6748 22.522 25.4279 22.522 25.1679C22.522 24.9079 22.4653 24.661 22.3642 24.4384H22.5278C23.5047 24.4384 24.2995 23.6436 24.2995 22.6667C24.2995 22.3817 24.2315 22.1125 24.1114 21.8737C24.8616 21.6677 25.4144 20.9801 25.4144 20.1654C25.4144 19.7702 25.2843 19.4049 25.0647 19.1099V12.5055C25.0647 12.2178 24.8314 11.9844 24.5436 11.9844C24.2559 11.9844 24.0225 12.2178 24.0225 12.5055V18.4352C23.9001 18.4084 23.7731 18.3938 23.6427 18.3938H23.6256C23.7266 18.1711 23.7834 17.9243 23.7834 17.6643C23.7834 16.6873 22.9886 15.8926 22.0117 15.8926H21.174C22.0635 15.5111 22.6882 14.627 22.6882 13.5995C22.6882 12.2243 21.5695 11.1056 20.1944 11.1056C18.8193 11.1056 17.7005 12.2243 17.7005 13.5995C17.7005 14.627 18.3253 15.5111 19.2147 15.8926H16.3662V5.98425C17.2971 5.78138 18.0316 5.04689 18.2344 4.11595H22.1542C22.357 5.04689 23.0916 5.78138 24.0225 5.98425V7.60435C24.0225 7.8921 24.2558 8.12545 24.5436 8.12545C24.8313 8.12545 25.0647 7.8921 25.0647 7.60435V5.51901C25.0647 5.23126 24.8313 4.99791 24.5436 4.99791C23.7699 4.99791 23.1406 4.36847 23.1406 3.59484C23.1406 3.30709 22.9072 3.07374 22.6195 3.07374H17.7693C17.4815 3.07374 17.2482 3.30709 17.2482 3.59484C17.2482 4.36852 16.6188 4.99791 15.8451 4.99791C15.5574 4.99791 15.324 5.23126 15.324 5.51901V15.8925H14.3062V1.30205L26.0828 1.30148V25.8974ZM20.1945 15.0511C19.394 15.0511 18.7428 14.3999 18.7428 13.5995C18.7428 12.7991 19.3941 12.1478 20.1945 12.1478C20.9949 12.1478 21.6461 12.799 21.6461 13.5995C21.6461 14.3999 20.9949 15.0511 20.1945 15.0511Z" fill="white"/>
</svg>
