<svg width="280" height="281" viewBox="0 0 280 281" fill="none" xmlns="http://www.w3.org/2000/svg">
<g opacity="0.07">
<path d="M46.8924 249.351C45.8774 248.335 44.4686 247.751 43.0326 247.751C41.5966 247.751 40.1879 248.335 39.1723 249.351C38.1567 250.367 37.5724 251.776 37.5724 253.212C37.5724 254.648 38.1561 256.056 39.1723 257.071C40.1879 258.087 41.5966 258.672 43.0326 258.672C44.4686 258.672 45.8774 258.088 46.8924 257.071C47.908 256.056 48.4928 254.648 48.4928 253.212C48.4928 251.776 47.9086 250.367 46.8924 249.351Z" fill="#8E4FD5"/>
<path d="M256.811 100.838C255.795 99.8217 254.392 99.238 252.95 99.238C251.514 99.238 250.105 99.8217 249.09 100.838C248.075 101.853 247.49 103.262 247.49 104.698C247.49 106.134 248.074 107.543 249.09 108.558C250.105 109.574 251.514 110.158 252.95 110.158C254.392 110.158 255.795 109.574 256.811 108.558C257.831 107.543 258.415 106.134 258.415 104.698C258.415 103.262 257.831 101.853 256.811 100.838Z" fill="#8E4FD5"/>
<path d="M278.401 2.54949C277.376 1.5257 275.987 0.950195 274.539 0.950195L140.221 0.957294C137.206 0.957294 134.762 3.40237 134.762 6.41748V22.032L83.005 35.9003C80.092 36.6811 78.3633 39.675 79.1441 42.5874L105.968 142.696L82.7632 165.901C79.8097 161.588 74.8508 158.752 69.2415 158.752H16.8253C7.79309 158.752 0.445312 166.101 0.445312 175.132V264.131C0.445312 273.164 7.79309 280.512 16.8253 280.512H69.2421C76.9153 280.512 83.3703 275.207 85.1394 268.074L91.6316 273.735C96.6435 278.106 103.065 280.513 109.715 280.513H274.54C277.555 280.513 280 278.067 280 275.052V6.41039C279.999 4.96234 279.425 3.57327 278.401 2.54949ZM74.7012 264.132C74.7012 267.142 72.2517 269.592 69.241 269.592H16.8248C13.814 269.592 11.3646 267.143 11.3646 264.132V175.133C11.3646 172.122 13.814 169.673 16.8248 169.673H37.573V232.572C37.573 235.587 40.018 238.032 43.0332 238.032C46.0483 238.032 48.4934 235.587 48.4934 232.572V169.673H69.2415C72.2523 169.673 74.7017 172.122 74.7017 175.133V264.132H74.7012ZM91.1052 45.0352L134.762 33.3373V53.5701L131.102 54.5507C129.703 54.9258 128.511 55.8404 127.787 57.0946C127.063 58.3488 126.866 59.8389 127.241 61.2378C129.34 69.0683 124.676 77.1455 116.846 79.2439C115.445 79.6195 114.251 80.5358 113.528 81.7927C112.804 83.0491 112.609 84.5419 112.988 85.9419L134.271 164.753H123.312L117.665 142.659C117.485 141.956 117.171 141.308 116.75 140.744L91.1052 45.0352ZM134.762 78.61V124.684L124.803 87.8082C128.963 85.6601 132.367 82.4463 134.762 78.61ZM213.205 269.592H109.714C105.703 269.592 101.83 268.14 98.8074 265.505L85.6216 254.005V178.487L109.46 154.649L113.783 171.564C114.401 173.981 116.578 175.672 119.073 175.672L226.422 175.678C230.638 175.678 234.067 179.107 234.067 183.323C234.067 187.538 230.638 190.967 226.422 190.967H171.416C168.401 190.967 165.956 193.412 165.956 196.427C165.956 199.442 168.401 201.887 171.416 201.887H243.513C247.728 201.887 251.157 205.316 251.157 209.532C251.157 213.747 247.728 217.176 243.513 217.176H171.416C168.401 217.176 165.956 219.621 165.956 222.636C165.956 225.651 168.401 228.096 171.416 228.096H231.83C236.045 228.096 239.474 231.525 239.474 235.741C239.474 239.956 236.045 243.385 231.83 243.385H171.416C168.401 243.385 165.956 245.83 165.956 248.845C165.956 251.86 168.401 254.305 171.416 254.305H213.205C217.42 254.305 220.849 257.734 220.849 261.95C220.849 266.163 217.42 269.592 213.205 269.592ZM269.08 269.592H230.116C231.174 267.258 231.769 264.672 231.769 261.947C231.769 259.223 231.174 256.636 230.116 254.303H231.83C242.066 254.303 250.394 245.975 250.394 235.739C250.394 232.753 249.681 229.932 248.423 227.43C256.284 225.271 262.076 218.067 262.076 209.531C262.076 205.39 260.712 201.561 258.412 198.471V129.269C258.412 126.253 255.967 123.808 252.952 123.808C249.937 123.808 247.492 126.253 247.492 129.269V191.401C246.209 191.12 244.878 190.967 243.512 190.967H243.333C244.391 188.634 244.986 186.047 244.986 183.323C244.986 173.086 236.658 164.759 226.422 164.759H217.645C226.965 160.762 233.51 151.498 233.51 140.731C233.51 126.322 221.788 114.6 207.379 114.6C192.971 114.6 181.249 126.322 181.249 140.731C181.249 151.498 187.795 160.762 197.114 164.759H167.267V60.9375C177.021 58.8118 184.718 51.1157 186.843 41.3611H227.915C230.04 51.1157 237.737 58.8118 247.491 60.9375V77.9132C247.491 80.9284 249.936 83.3734 252.951 83.3734C255.966 83.3734 258.411 80.9284 258.411 77.9132V56.0626C258.411 53.0475 255.966 50.6024 252.951 50.6024C244.845 50.6024 238.25 44.0071 238.25 35.9009C238.25 32.8858 235.805 30.4407 232.79 30.4407H181.969C178.954 30.4407 176.509 32.8858 176.509 35.9009C176.509 44.0076 169.914 50.6024 161.808 50.6024C158.793 50.6024 156.347 53.0475 156.347 56.0626V164.758H145.683V11.8766L269.08 11.8706V269.592ZM207.381 155.942C198.993 155.942 192.17 149.118 192.17 140.732C192.17 132.345 198.994 125.521 207.381 125.521C215.767 125.521 222.591 132.344 222.591 140.731C222.591 149.118 215.768 155.942 207.381 155.942Z" fill="#8E4FD5"/>
</g>
</svg>
