<svg width="23" height="21" viewBox="0 0 23 21" fill="none" xmlns="http://www.w3.org/2000/svg">
<path fill-rule="evenodd" clip-rule="evenodd" d="M3.07191 2.65967C2.51227 2.65967 2.05859 3.11334 2.05859 3.67298V13.7396C2.05859 14.2992 2.51227 14.7529 3.07191 14.7529H19.1784C19.7381 14.7529 20.1917 14.2992 20.1917 13.7396V3.67298C20.1917 3.11334 19.7381 2.65967 19.1784 2.65967H3.07191ZM12.1252 16.7529H19.1784C20.8426 16.7529 22.1917 15.4038 22.1917 13.7396V3.67298C22.1917 2.00877 20.8426 0.659668 19.1784 0.659668H3.07191C1.4077 0.659668 0.0585938 2.00877 0.0585938 3.67298V13.7396C0.0585938 15.4038 1.4077 16.7529 3.07191 16.7529H10.1252V18.7795H7.09854C6.54625 18.7795 6.09854 19.2272 6.09854 19.7795C6.09854 20.3318 6.54625 20.7795 7.09854 20.7795H15.1518C15.7041 20.7795 16.1518 20.3318 16.1518 19.7795C16.1518 19.2272 15.7041 18.7795 15.1518 18.7795H12.1252V16.7529Z" fill="white"/>
</svg>
