<svg width="268" height="269" viewBox="0 0 268 269" fill="none" xmlns="http://www.w3.org/2000/svg">
<path opacity="0.07" d="M142.004 156.247C142.004 158.415 143.762 160.173 145.93 160.173C148.099 160.173 149.856 158.415 149.856 156.247C149.856 149.187 144.365 143.911 137.926 144.268V142.098C137.926 139.93 136.169 138.172 134 138.172C131.832 138.172 130.074 139.93 130.074 142.098V144.268C123.599 143.832 118.133 149.298 118.144 156.247V161.616C118.112 168.478 123.599 174.093 130.074 173.594V187.217C127.845 187.486 125.996 185.815 125.996 183.09C125.996 180.922 124.238 179.164 122.07 179.164C119.902 179.164 118.144 180.922 118.144 183.09C118.144 189.952 123.599 195.568 130.074 195.069V197.24C130.074 199.408 131.832 201.166 134 201.166C136.169 201.166 137.926 199.408 137.926 197.24V195.069C144.339 195.426 149.873 190.098 149.856 183.09V177.721C149.872 170.66 144.364 165.386 137.926 165.742V152.12C140.088 151.749 142.004 153.598 142.004 156.247ZM130.074 165.743C127.846 166.013 125.999 164.341 125.996 161.616V156.248C125.99 153.656 127.918 151.719 130.074 152.121V165.743ZM142.004 177.722V183.091C141.971 185.668 140.112 187.631 137.926 187.218V173.595C140.088 173.222 142.009 175.073 142.004 177.722ZM152.059 42.5508C152.059 32.5935 143.957 24.4923 134 24.4923C124.043 24.4923 115.942 32.5935 115.942 42.5508C115.942 52.5081 124.043 60.6094 134 60.6094C143.957 60.6094 152.059 52.5081 152.059 42.5508ZM123.793 42.5508C123.793 36.9229 128.372 32.3438 134 32.3438C139.628 32.3438 144.207 36.9229 144.207 42.5508C144.207 48.1788 139.628 52.7578 134 52.7578C128.372 52.7578 123.793 48.1788 123.793 42.5508ZM134 124.686C109.197 124.686 89.0171 144.866 89.0171 169.669C89.0171 194.473 109.197 214.652 134 214.652C158.804 214.652 178.983 194.473 178.983 169.669C178.983 144.866 158.804 124.686 134 124.686ZM134 206.801C113.526 206.801 96.8686 190.143 96.8686 169.669C96.8686 149.195 113.526 132.538 134 132.538C154.474 132.538 171.132 149.195 171.132 169.669C171.132 190.143 154.474 206.801 134 206.801ZM250.397 102.066C259.484 102.635 268.077 96.0276 267.999 86.3634V74.5861C267.935 73.4613 267.565 72.0359 265.937 71.1304L143.517 3.26334C137.558 -0.0405807 130.442 -0.0405807 124.483 3.26334L75.0916 30.6453C73.1952 31.6964 72.51 34.0858 73.5616 35.9822C74.6127 37.8786 77.0027 38.5644 78.8986 37.5122L128.29 10.1303C131.866 8.14804 136.135 8.14856 139.711 10.1303L248.896 70.6604H19.1044L62.694 46.4949C64.5904 45.4439 65.2756 43.0544 64.224 41.158C63.173 39.2616 60.7835 38.5764 58.8871 39.628L2.06401 71.1299C1.1616 71.6585 -0.0150789 72.7892 0.000624207 74.5861V86.3634C-0.0831254 95.6073 8.273 103.076 17.6027 102.066L31.4067 121.497V217.841L17.6027 237.271H9.16074C4.11011 237.271 0.000624207 241.381 0.000624207 246.432V259.517C0.000624207 264.568 4.11011 268.678 9.16074 268.678H258.839C263.89 268.678 267.999 264.568 267.999 259.517V246.432C267.999 241.381 263.89 237.271 258.839 237.271H250.397L236.593 217.841V121.497L250.397 102.066ZM15.7037 94.215C11.3743 94.215 7.85215 90.6928 7.85215 86.3634V78.5119H260.148V86.3634C260.148 90.6928 256.626 94.215 252.296 94.215H15.7037ZM201.13 173.04C203.299 173.04 205.056 171.282 205.056 169.114V124.17H228.742V215.168H205.056V187.435C205.056 185.267 203.299 183.509 201.13 183.509C198.962 183.509 197.204 185.267 197.204 187.435V217.841L183.4 237.271H84.6003L70.7963 217.841V121.497L84.6003 102.066H183.401L197.205 121.497V169.114C197.204 171.282 198.962 173.04 201.13 173.04ZM27.2344 102.066H74.9691L64.8443 116.319H37.3592L27.2344 102.066ZM62.9448 124.17V215.168H39.2583V124.17H62.9448ZM37.3592 223.02H64.8438L74.9686 237.271H27.2344L37.3592 223.02ZM258.839 245.123C259.561 245.123 260.148 245.71 260.148 246.432V259.517C260.148 260.239 259.561 260.826 258.839 260.826H9.16074C8.43945 260.826 7.85215 260.239 7.85215 259.517V246.432C7.85215 245.71 8.43945 245.123 9.16074 245.123H258.839ZM240.766 237.271H193.032L203.157 223.02H230.641L240.766 237.271ZM230.641 116.319H203.157L193.032 102.066H240.766L230.641 116.319Z" fill="#8E4FD5"/>
</svg>
