<svg width="32" height="32" viewBox="0 0 32 32" fill="none" xmlns="http://www.w3.org/2000/svg">
<path d="M16.941 18.3128C16.941 18.5676 17.1475 18.7742 17.4024 18.7742C17.6573 18.7742 17.8638 18.5676 17.8638 18.3128C17.8638 17.4829 17.2184 16.8628 16.4616 16.9048V16.6497C16.4616 16.3948 16.255 16.1882 16.0001 16.1882C15.7453 16.1882 15.5387 16.3948 15.5387 16.6497V16.9048C14.7777 16.8535 14.1351 17.4959 14.1365 18.3128V18.9438C14.1327 19.7503 14.7777 20.4103 15.5387 20.3517V21.9529C15.2767 21.9846 15.0593 21.7881 15.0593 21.4678C15.0593 21.213 14.8527 21.0064 14.5979 21.0064C14.3431 21.0064 14.1365 21.213 14.1365 21.4678C14.1365 22.2743 14.7777 22.9344 15.5387 22.8758V23.131C15.5387 23.3858 15.7453 23.5924 16.0001 23.5924C16.255 23.5924 16.4616 23.3858 16.4616 23.131V22.8758C17.2154 22.9178 17.8659 22.2916 17.8638 21.4678V20.8368C17.8657 20.0068 17.2183 19.387 16.4616 19.4288V17.8277C16.7157 17.784 16.941 18.0014 16.941 18.3128ZM15.5387 19.4289C15.2767 19.4606 15.0597 19.264 15.0593 18.9438V18.3128C15.0587 18.0082 15.2853 17.7805 15.5387 17.8277V19.4289ZM16.941 20.8368V21.4679C16.9371 21.7708 16.7186 22.0016 16.4616 21.953V20.3518C16.7157 20.308 16.9415 20.5255 16.941 20.8368ZM18.1227 4.94908C18.1227 3.77871 17.1705 2.82651 16.0001 2.82651C14.8298 2.82651 13.8776 3.77871 13.8776 4.94908C13.8776 6.11944 14.8298 7.07165 16.0001 7.07165C17.1705 7.07165 18.1227 6.11944 18.1227 4.94908ZM14.8004 4.94908C14.8004 4.28758 15.3386 3.74937 16.0001 3.74937C16.6616 3.74937 17.1999 4.28758 17.1999 4.94908C17.1999 5.61058 16.6616 6.14879 16.0001 6.14879C15.3386 6.14879 14.8004 5.61058 14.8004 4.94908ZM16.0001 14.6031C13.0848 14.6031 10.7129 16.975 10.7129 19.8904C10.7129 22.8057 13.0848 25.1776 16.0001 25.1776C18.9156 25.1776 21.2874 22.8057 21.2874 19.8904C21.2874 16.975 18.9156 14.6031 16.0001 14.6031ZM16.0001 24.2547C13.5936 24.2547 11.6358 22.2969 11.6358 19.8904C11.6358 17.4839 13.5936 15.526 16.0001 15.526C18.4066 15.526 20.3645 17.4839 20.3645 19.8904C20.3645 22.2969 18.4066 24.2547 16.0001 24.2547ZM29.6813 11.9444C30.7493 12.0113 31.7593 11.2346 31.7502 10.0987V8.71445C31.7426 8.58224 31.6991 8.41471 31.5078 8.30827L17.1188 0.331292C16.4184 -0.0570454 15.582 -0.0570454 14.8815 0.331292L9.07614 3.54972C8.85324 3.67326 8.77271 3.95412 8.89631 4.17702C9.01985 4.39992 9.30077 4.48051 9.5236 4.35685L15.329 1.13842C15.7493 0.905432 16.2511 0.905493 16.6714 1.13842L29.5048 8.25303H2.4955L7.61895 5.41266C7.84185 5.28912 7.92239 5.00826 7.79879 4.78536C7.67525 4.56246 7.39439 4.48193 7.17149 4.60553L0.4926 8.30821C0.386533 8.37035 0.248228 8.50324 0.250073 8.71445V10.0987C0.24023 11.1852 1.22239 12.0631 2.31899 11.9444L3.9415 14.2283V25.5525L2.31899 27.8362H1.32674C0.733096 27.8362 0.250073 28.3192 0.250073 28.9129V30.451C0.250073 31.0446 0.733096 31.5276 1.32674 31.5276H30.6736C31.2672 31.5276 31.7502 31.0446 31.7502 30.451V28.9129C31.7502 28.3192 31.2672 27.8362 30.6736 27.8362H29.6813L28.0588 25.5525V14.2283L29.6813 11.9444ZM2.09578 11.0216C1.58692 11.0216 1.17293 10.6076 1.17293 10.0987V9.17588H30.8274V10.0987C30.8274 10.6076 30.4134 11.0216 29.9045 11.0216H2.09578ZM23.8905 20.2866C24.1454 20.2866 24.3519 20.08 24.3519 19.8251V14.5425H27.1359V25.2382H24.3519V21.9785C24.3519 21.7236 24.1454 21.517 23.8905 21.517C23.6356 21.517 23.4291 21.7236 23.4291 21.9785V25.5525L21.8066 27.8362H10.1938L8.57128 25.5525V14.2283L10.1938 11.9444H21.8066L23.4291 14.2283V19.8251C23.4291 20.08 23.6357 20.2866 23.8905 20.2866ZM3.45109 11.9444H9.06175L7.87169 13.6196H4.64114L3.45109 11.9444ZM7.64842 14.5425V25.2382H4.86435V14.5425H7.64842ZM4.64114 26.1611H7.87163L9.06168 27.8362H3.45109L4.64114 26.1611ZM30.6736 28.7591C30.7584 28.7591 30.8274 28.8281 30.8274 28.9129V30.451C30.8274 30.5357 30.7584 30.6048 30.6736 30.6048H1.32674C1.24196 30.6048 1.17293 30.5357 1.17293 30.451V28.9129C1.17293 28.8281 1.24196 28.7591 1.32674 28.7591H30.6736ZM28.5493 27.8362H22.9387L24.1288 26.1611H27.3592L28.5493 27.8362ZM27.3591 13.6196H24.1287L22.9386 11.9444H28.5492L27.3591 13.6196Z" fill="white"/>
</svg>
