<svg width="22" height="23" viewBox="0 0 22 23" fill="none" xmlns="http://www.w3.org/2000/svg">
<path d="M20.9467 16.1652V19.1652C20.9478 19.4437 20.8908 19.7194 20.7792 19.9746C20.6676 20.2297 20.504 20.4588 20.2988 20.6471C20.0936 20.8354 19.8513 20.9787 19.5875 21.0679C19.3236 21.1571 19.0441 21.1903 18.7667 21.1652C15.6895 20.8309 12.7337 19.7794 10.1367 18.0952C7.72054 16.5599 5.67205 14.5114 4.13671 12.0952C2.44669 9.48642 1.39495 6.51621 1.06671 3.42521C1.04172 3.14868 1.07459 2.86997 1.16321 2.60684C1.25184 2.3437 1.39428 2.1019 1.58148 1.89684C1.76867 1.69177 1.99652 1.52792 2.2505 1.41574C2.50449 1.30355 2.77905 1.24548 3.05671 1.24521H6.05671C6.54202 1.24044 7.0125 1.41229 7.38047 1.72875C7.74844 2.0452 7.98879 2.48466 8.05671 2.96521C8.18333 3.92528 8.41816 4.86794 8.75671 5.77521C8.89125 6.13314 8.92037 6.52213 8.84062 6.89609C8.76086 7.27006 8.57557 7.61333 8.30671 7.88521L7.03671 9.15521C8.46027 11.6588 10.5332 13.7317 13.0367 15.1552L14.3067 13.8852C14.5786 13.6164 14.9219 13.4311 15.2958 13.3513C15.6698 13.2716 16.0588 13.3007 16.4167 13.4352C17.324 13.7738 18.2666 14.0086 19.2267 14.1352C19.7125 14.2037 20.1561 14.4484 20.4732 14.8227C20.7904 15.197 20.9589 15.6748 20.9467 16.1652Z" stroke="white" stroke-width="2" stroke-linecap="round" stroke-linejoin="round"/>
</svg>
