<svg width="76" height="93" viewBox="0 0 76 93" fill="none" xmlns="http://www.w3.org/2000/svg">
<path fill-rule="evenodd" clip-rule="evenodd" d="M37.9318 92.2427C37.9318 92.2427 75.3636 67.2881 75.3636 38.1745C75.3636 28.247 71.4199 18.726 64.4001 11.7062C57.3803 4.68637 47.8594 0.742676 37.9318 0.742676C28.0043 0.742676 18.4834 4.68637 11.4635 11.7062C4.4437 18.726 0.5 28.247 0.5 38.1745C0.5 67.2881 37.9318 92.2427 37.9318 92.2427ZM50.4098 38.1747C50.4098 45.0657 44.8235 50.652 37.9325 50.652C31.0415 50.652 25.4553 45.0657 25.4553 38.1747C25.4553 31.2837 31.0415 25.6974 37.9325 25.6974C44.8235 25.6974 50.4098 31.2837 50.4098 38.1747Z" fill="url(#paint0_linear)"/>
<defs>
<linearGradient id="paint0_linear" x1="2.08202" y1="55.5554" x2="75.3636" y2="55.5554" gradientUnits="userSpaceOnUse">
<stop stop-color="#ED1F24"/>
<stop offset="1" stop-color="#FF8E25"/>
</linearGradient>
</defs>
</svg>
